<?xml version="1.0" encoding="utf-8"?>
<!-- Generator: Adobe Illustrator 23.1.0, SVG Export Plug-In . SVG Version: 6.00 Build 0)  -->
<svg version="1.1" id="Layer_1" xmlns="http://www.w3.org/2000/svg" xmlns:xlink="http://www.w3.org/1999/xlink" x="0px" y="0px"
	 viewBox="0 0 792 288" style="enable-background:new 0 0 792 288;" xml:space="preserve">
<style type="text/css">
	.st0{fill:none;stroke:#1D1E1C;stroke-width:14.0667;stroke-miterlimit:10;}
	.st1{fill:#FFFFFF;}
	.st2{opacity:0.25;fill:#FFFFFF;}
	.st3{opacity:0.75;fill:#FFFFFF;}
	.st4{opacity:0.5;fill:#FFFFFF;}
</style>
<g>
	<g>
		<g>
			<g>
				<path class="st0" d="M163.55,166.89"/>
			</g>
		</g>
	</g>
	<path class="st1" d="M255.23,80.8c-0.96-8.57-4.33-16.78-9.04-23.74c-0.56-0.9-1.2-1.72-1.82-2.57c-0.63-0.84-1.24-1.7-1.93-2.47
		l-2.02-2.38c-0.74-0.77-1.45-1.58-2.23-2.32c-3.06-3-6.45-5.69-10.12-7.9c-7.33-4.44-15.64-7.09-24.05-7.97
		c-8.42-0.86-16.96,0.02-24.97,2.52c-4,1.26-7.88,2.91-11.54,4.94c-3.64,2.03-7.05,4.3-10.29,6.87c-3.23,2.57-6.24,5.41-8.98,8.49
		c-2.7,3.11-5.11,6.46-7.23,9.96c-8.46,14.04-12.08,30.4-10.89,46.29c0.69,7.83,1.95,15.42,3.34,22.98l2.99,15.45
		c0.06,0.51,0.13,1.01,0.19,1.52c0.29,2.71,0.53,5.41,0.71,8.13c0,7.82,0.22,15.63,0.35,23.42c0.12,5.25,0.28,10.49,0.29,15.7
		c-0.01,5.21,0.03,10.34-0.5,15.29c-0.48,4.95-1.54,9.72-3.21,14.17c-1.69,4.45-4.1,8.53-7.1,12.13c-3.01,3.61-6.65,6.7-10.65,9.36
		c-2.02,1.31-4.11,2.54-6.3,3.63c-2.17,1.14-4.17,1.97-6.4,2.67c-8.8,2.7-18.73,2.28-27.87-0.48c-4.55-1.4-8.99-3.36-12.69-6
		c-0.92-0.66-1.81-1.34-2.59-2.07c-0.8-0.7-1.48-1.48-2.22-2.36c-1.41-1.75-2.67-3.73-3.77-5.81c-2.18-4.19-3.68-8.85-4.44-13.64
		c-0.79-4.8-0.85-9.77-0.04-14.67c1.42-9.88,6.28-19.26,12.9-27.49c-4.18,3.24-7.99,7.07-11.13,11.5
		c-3.12,4.43-5.63,9.42-7.17,14.77c-3.1,10.69-2.62,22.62,1.96,33.26c1.13,2.67,2.55,5.25,4.29,7.7c0.86,1.19,1.86,2.46,2.97,3.56
		c1.08,1.12,2.22,2.12,3.4,3.04c4.74,3.64,9.94,6.23,15.38,8.04c5.44,1.8,11.12,2.9,16.9,3.08c5.77,0.2,11.66-0.45,17.3-2.27
		c2.78-0.87,5.63-2.11,8.1-3.44c2.5-1.29,4.91-2.79,7.26-4.39c4.68-3.24,9.04-7.14,12.58-11.76c3.58-4.58,6.31-9.84,8.06-15.32
		c1.79-5.48,2.53-11.15,2.73-16.68c0.13-5.55-0.25-10.94-0.87-16.21c-0.61-5.28-1.27-10.51-2.04-15.73
		c-0.71-4.61-1.45-9.21-2.22-13.81l0.08-0.01c-0.11-0.43-0.19-0.86-0.29-1.28c-0.68-4-1.41-7.99-2.16-11.98
		c-0.19-1.38-0.36-2.77-0.52-4.16c-0.01-0.06-0.01-0.12-0.02-0.18c-0.21-5.7-0.57-11.4-0.89-17.07c-0.42-7.64-0.93-15.28-0.74-22.75
		c0.05-7.38,1.32-14.65,3.52-21.61c2.2-6.94,5.24-13.57,9.32-19.44c4.08-5.86,9.04-11.01,14.72-15.2c2.83-2.09,5.89-3.96,9-5.54
		c3.09-1.57,6.35-2.81,9.68-3.73c13.28-3.8,28.07-2.26,39.63,4.76c2.91,1.71,5.56,3.81,7.98,6.14c0.61,0.58,1.17,1.21,1.76,1.81
		l1.7,1.99c0.59,0.65,1.09,1.35,1.62,2.03c0.52,0.69,1.08,1.36,1.54,2.08c4,5.62,6.56,11.98,7.62,18.6
		c1.03,6.63,0.29,13.55-1.91,20.14c-2.22,6.57-5.72,12.87-10.15,18.48c-2.22,2.8-4.68,5.43-7.34,7.83
		c-2.65,2.41-5.52,4.49-8.62,6.66c-6.12,4.24-12.63,7.96-19.41,11.14c-13.53,6.41-28.29,10.65-43.6,11.72
		c15.34,1.58,31.08-1.16,45.82-6.32c7.37-2.66,14.5-6.02,21.34-9.94c3.38-1.9,6.85-4.15,10.02-6.71c3.18-2.55,6.14-5.36,8.86-8.4
		c5.43-6.08,9.98-13.11,12.88-20.98C254.94,98.05,256.25,89.37,255.23,80.8z"/>
	<g>
		<g>
			<path class="st1" d="M192.85,266.05c-10.4,0-16.14-4.55-16.83-12.37c-0.2-0.49-0.3-7.92-0.3-10.1h10c0,1.78,0.1,7.33,0.2,7.62
				c0.59,4.06,2.97,5.54,6.83,5.54c4.55,0,6.63-2.77,6.63-8.71c0-6.34-1.58-10.1-7.92-16.83c-1.39-1.49-3.96-4.26-6.04-6.53
				c-6.34-7.03-10-12.47-10-21.98c0-10.79,6.43-17.03,17.13-17.03s15.34,6.34,16.34,14.65c0.2,3.17,0.4,6.93,0.4,8.32h-10.1
				c0-1.78-0.2-6.63-0.2-6.63c-0.49-4.26-2.28-6.63-6.53-6.63c-4.95,0-6.53,2.28-6.53,7.62c0,6.04,3.86,10.2,8.12,14.85
				c1.68,1.78,3.96,4.36,6.14,6.73c6.53,7.13,9.8,12.57,9.8,22.97C209.98,259.52,203.74,266.05,192.85,266.05z"/>
			<path class="st1" d="M245.72,256.05c-1.58,6.14-6.04,9.8-13.46,9.8c-8.02,0-12.08-3.86-13.46-9.6
				c-0.89-3.76-1.68-11.68-1.68-18.22c0-6.53,0.4-13.86,1.78-18.22c1.98-6.04,5.54-9.7,13.46-9.7c7.92,0,12.18,3.96,13.56,9.7
				c0.89,3.56,1.49,12.18,1.49,18.22C247.4,244.07,246.81,251.99,245.72,256.05z M237.3,223.19c-0.59-3.07-2.18-4.26-5.05-4.26
				c-2.77,0-4.36,1.48-4.95,4.45c-0.59,2.87-0.79,10.1-0.79,14.75c0,4.85,0.3,12.08,0.79,15.05c0.59,2.87,2.38,4.16,4.95,4.16
				c2.67,0,4.36-1.39,4.95-4.26c0.49-2.97,0.79-10.1,0.79-14.95C238,233.38,237.8,225.86,237.3,223.19z"/>
			<path class="st1" d="M256.06,265.26c-0.3-0.3-0.4-1.68-0.4-3.46c0-11.48,0-57.92,0-70.98c0-1.68-0.1-4.06-0.2-4.65h9.5
				c0.1,0.2,0.2,1.68,0.2,3.27c0,10.79,0,55.34,0,71.68c0,2.57,0.2,3.86,0.4,4.16C265.57,265.26,256.06,265.36,256.06,265.26z"/>
			<path class="st1" d="M274.11,207.54v-10.89h10.3v10.89H274.11z M274.9,265.26c-0.3-0.1-0.49-0.89-0.49-2.97
				c0-7.33,0-51.48,0-51.48h9.7c0,0,0,45.24,0,51.08c0,2.18,0.3,3.27,0.3,3.37H274.9z"/>
			<path class="st1" d="M312.77,214.87v-28.71h9.5c0,0-0.1,62.47-0.1,72.57c0,2.77,0.4,6.53,0.4,6.53h-7.92l-0.99-4.36
				c-2.18,3.46-5.25,4.75-8.91,4.75c-4.46,0-8.61-1.98-10.2-6.93c-1.49-4.36-2.28-11.78-2.28-20.2s0.4-16.04,1.88-20.39
				c1.68-4.95,5.74-7.72,10.59-7.72C308.51,210.41,311.38,211.9,312.77,214.87z M302.57,222.99c-0.59,3.37-0.89,10-0.89,15.54
				c0,5.45,0.2,11.09,0.89,15.15c0.4,2.18,1.88,3.96,4.65,3.96c2.97,0,4.65-1.78,4.95-4.75c0.3-2.87,0.69-8.81,0.69-14.26
				c0-10.1-0.1-12.47-0.59-16.14c-0.3-2.28-2.18-3.37-4.85-3.37C304.75,219.13,303.16,220.31,302.57,222.99z"/>
			<path class="st1" d="M347.05,266.05c-10.4,0-16.14-4.55-16.83-12.37c-0.2-0.49-0.3-7.92-0.3-10.1h10c0,1.78,0.1,7.33,0.2,7.62
				c0.59,4.06,2.97,5.54,6.83,5.54c4.55,0,6.63-2.77,6.63-8.71c0-6.34-1.58-10.1-7.92-16.83c-1.39-1.49-3.96-4.26-6.04-6.53
				c-6.34-7.03-10-12.47-10-21.98c0-10.79,6.43-17.03,17.13-17.03s15.34,6.34,16.34,14.65c0.2,3.17,0.4,6.93,0.4,8.32h-10.1
				c0-1.78-0.2-6.63-0.2-6.63c-0.49-4.26-2.28-6.63-6.53-6.63c-4.95,0-6.53,2.28-6.53,7.62c0,6.04,3.86,10.2,8.12,14.85
				c1.68,1.78,3.96,4.36,6.14,6.73c6.53,7.13,9.8,12.57,9.8,22.97C364.18,259.52,357.94,266.05,347.05,266.05z"/>
			<path class="st1" d="M383.83,219.52c0,1.19-0.1,4.75-0.1,33.46c0,3.46,1.39,3.96,3.86,3.96c1.09,0,2.28-0.2,3.27-0.4v8.42
				c-0.99,0.49-4.36,0.69-7.13,0.69c-4.75,0-9.6-2.38-9.6-10.2v-35.94h-4.36v-8.71h4.26c0.1-0.2,0.3-9.21,0.3-9.21l9.31-0.3v9.5
				h7.52v8.71H383.83z"/>
			<path class="st1" d="M418.34,265.26c-0.1,0-0.4-2.08-0.4-3.46c-2.18,2.67-5.25,3.86-10,3.86c-5.25,0-10.1-2.08-10.39-8.91
				c-0.1-2.08-0.1-7.23,0-9.8c0.3-7.23,3.66-11.48,13.27-13.76c2.38-0.59,4.65-0.99,6.83-1.29c0-1.78,0.1-6.73,0-8.71
				c-0.1-2.97-1.58-4.46-4.55-4.46c-2.28,0-4.16,0.99-4.65,3.76c-0.4,2.18-0.4,4.75-0.4,7.43h-8.91c0-3.07,0.2-7.62,0.79-10.69
				c1.19-5.54,5.74-9.21,13.37-9.21c9.5,0,13.17,4.36,13.46,11.09c0.1,5.15,0,14.85-0.1,19.9c0,4.95-0.1,12.57,0,16.14
				c0.1,3.27,0.3,7.33,0.59,8.12H418.34z M413.98,240.11c-1.68,0.49-3.56,0.89-5.15,2.48c-1.48,1.48-1.68,2.67-1.98,4.85
				c-0.2,1.58-0.1,5.45,0.1,6.83c0.3,2.28,2.28,3.56,4.75,3.56c2.48,0,4.55-1.39,5.45-3.96c0.59-2.67,0.4-5.84,0.49-9.4
				c0.1-1.09,0-4.16,0-5.15C416.45,239.52,415.17,239.72,413.98,240.11z"/>
			<path class="st1" d="M447.54,219.52c0,1.19-0.1,4.75-0.1,33.46c0,3.46,1.39,3.96,3.86,3.96c1.09,0,2.28-0.2,3.27-0.4v8.42
				c-0.99,0.49-4.36,0.69-7.13,0.69c-4.75,0-9.6-2.38-9.6-10.2v-35.94h-4.36v-8.71h4.26c0.1-0.2,0.3-9.21,0.3-9.21l9.31-0.3v9.5
				h7.52v8.71H447.54z"/>
			<path class="st1" d="M488.33,258.92c-2.08,4.46-5.74,7.03-12.47,7.03c-5.84,0-10.99-2.18-12.77-7.72
				c-1.39-4.36-2.18-7.92-2.18-19.8c0-10.69,0.49-16.43,1.88-19.7c2.28-5.45,6.14-8.61,13.36-8.61c7.13,0,10.79,3.37,12.38,7.82
				c1.68,4.85,1.88,10.79,1.78,23.96h-20.2c0,3.17,0.3,8.51,0.99,12.08c0.59,2.77,2.48,3.56,4.75,3.56c2.08,0,4.06-0.89,4.65-2.97
				c0.69-2.38,0.79-5.25,0.79-6.14h8.81C490.11,251.2,490.11,255.16,488.33,258.92z M480.51,222.19c-0.59-2.28-2.28-3.46-4.75-3.46
				c-2.28,0-3.96,0.79-4.85,3.37c-0.79,2.28-0.79,6.63-0.79,11.68h11.09C481.2,228.53,480.9,223.78,480.51,222.19z"/>
			<path class="st1" d="M528.85,228.83c-2.48,3.37-6.43,4.75-11.39,5.25c-3.17,0.3-8.42,0.1-8.42,0.1v31.09h-10.4v-79h19.01
				c5.35,0,9.11,1.78,11.19,5.25c2.48,4.26,3.37,9.31,3.37,18.71S531.32,225.56,528.85,228.83z M520.43,199.03
				c-0.89-1.88-2.67-3.07-5.05-3.07h-6.34v28.51c0,0,5.35,0,5.94,0c3.37,0,5.05-0.99,5.74-3.47c0.4-1.48,0.89-4.45,0.89-10.39
				C521.62,204.57,521.02,200.51,520.43,199.03z"/>
			<path class="st1" d="M568.24,265.26h-9.41c-0.1,0-0.1-0.99-0.1-41.58c0-2.67-0.99-4.46-4.16-4.46c-2.97,0-5.15,2.08-5.15,6.63
				v39.4h-9.5v-79.1h9.4v29.8c0.99-3.66,4.26-5.84,9.01-5.84c5.64,0,9.8,2.57,9.8,11.19C568.14,262.79,568.14,265.16,568.24,265.26z
				"/>
			<path class="st1" d="M596.63,265.26c-0.1,0-0.4-2.08-0.4-3.46c-2.18,2.67-5.25,3.86-10,3.86c-5.25,0-10.1-2.08-10.39-8.91
				c-0.1-2.08-0.1-7.23,0-9.8c0.3-7.23,3.66-11.48,13.27-13.76c2.38-0.59,4.65-0.99,6.83-1.29c0-1.78,0.1-6.73,0-8.71
				c-0.1-2.97-1.58-4.46-4.55-4.46c-2.28,0-4.16,0.99-4.65,3.76c-0.4,2.18-0.4,4.75-0.4,7.43h-8.91c0-3.07,0.2-7.62,0.79-10.69
				c1.19-5.54,5.74-9.21,13.37-9.21c9.5,0,13.17,4.36,13.46,11.09c0.1,5.15,0,14.85-0.1,19.9c0,4.95-0.1,12.57,0,16.14
				c0.1,3.27,0.3,7.33,0.59,8.12H596.63z M592.27,240.11c-1.68,0.49-3.56,0.89-5.15,2.48c-1.48,1.48-1.68,2.67-1.98,4.85
				c-0.2,1.58-0.1,5.45,0.1,6.83c0.3,2.28,2.28,3.56,4.75,3.56c2.48,0,4.55-1.39,5.45-3.96c0.59-2.67,0.4-5.84,0.49-9.4
				c0.1-1.09,0-4.16,0-5.15C594.75,239.52,593.46,239.72,592.27,240.11z"/>
			<path class="st1" d="M636.4,220.51c-1.29-0.4-3.46-0.59-5.84-0.59c-4.36,0-7.03,2.77-7.03,10.49v34.85h-9.6v-54.45h9.4v6.04
				c0.69-3.96,4.65-6.73,8.81-6.73c1.88,0,3.37,0.1,4.26,0.4V220.51z"/>
			<path class="st1" d="M678.8,223.58c0-2.38-0.69-4.65-3.86-4.65c-2.87,0-4.55,2.87-4.55,5.54v40.79h-9.21c0-0.2,0-1.68,0-42.07
				c0-2.48-1.19-4.26-3.86-4.26c-2.87,0-4.65,2.97-4.65,6.04v40.29h-9.5v-54.45h9.31v5.15c0.99-3.47,4.26-5.84,9.01-5.84
				c3.86,0,6.93,2.28,8.22,5.94c1.29-3.96,4.65-5.94,9.11-5.94c5.54,0,9.11,4.26,9.11,10.2c0,44.65,0,44.95,0.2,44.95h-9.11
				C678.89,265.26,678.8,264.77,678.8,223.58z"/>
			<path class="st1" d="M716.54,265.26c-0.1,0-0.4-2.08-0.4-3.46c-2.18,2.67-5.25,3.86-10,3.86c-5.25,0-10.1-2.08-10.39-8.91
				c-0.1-2.08-0.1-7.23,0-9.8c0.3-7.23,3.66-11.48,13.27-13.76c2.38-0.59,4.65-0.99,6.83-1.29c0-1.78,0.1-6.73,0-8.71
				c-0.1-2.97-1.58-4.46-4.55-4.46c-2.28,0-4.16,0.99-4.65,3.76c-0.4,2.18-0.4,4.75-0.4,7.43h-8.91c0-3.07,0.2-7.62,0.79-10.69
				c1.19-5.54,5.74-9.21,13.37-9.21c9.5,0,13.17,4.36,13.46,11.09c0.1,5.15,0,14.85-0.1,19.9c0,4.95-0.1,12.57,0,16.14
				c0.1,3.27,0.3,7.33,0.59,8.12H716.54z M712.19,240.11c-1.68,0.49-3.56,0.89-5.15,2.48c-1.48,1.48-1.68,2.67-1.98,4.85
				c-0.2,1.58-0.1,5.45,0.1,6.83c0.3,2.28,2.28,3.56,4.75,3.56s4.55-1.39,5.45-3.96c0.59-2.67,0.4-5.84,0.49-9.4
				c0.1-1.09,0-4.16,0-5.15C714.66,239.52,713.38,239.72,712.19,240.11z"/>
			<path class="st1" d="M744.85,218.1c-7.68,0-12.24-4.21-12.29-12.53c-0.06-1.62-0.06-4.85,0-7.91
				c0.12-8.14,5.02-11.66,12.18-11.66c7.1,0,12.01,3.35,12.24,11.66v7.91C756.86,213.88,752.47,218.1,744.85,218.1z M754.55,197.49
				c-0.12-6.12-3.64-9-9.81-9c-6.06,0-9.76,2.89-9.87,8.95v7.21c0.12,7.85,3.81,11.08,9.87,11.08c6.64,0,9.75-3.17,9.81-11.08
				V197.49z M747.39,211.63l-2.66-7.1h-2.19v7.1h-3.93v-18.07h6.93c2.25,0,3.41,0.4,4.62,1.73c0.92,1.04,1.15,2.6,1.15,3.52
				c0,0.92-0.23,2.77-0.87,3.58c-0.64,0.81-1.44,1.33-2.25,1.5l3.06,7.73H747.39z M746.24,197.32c-0.81-0.4-2.02-0.29-3.69-0.29v4.5
				c1.62,0,3.06,0.06,3.87-0.35c0.69-0.35,0.87-1.04,0.87-2.14C747.28,198.24,746.93,197.6,746.24,197.32z"/>
		</g>
	</g>
	<g>
		<path class="st2" d="M83.72,160.95c-3.1,1.17-6.17,2.42-9.19,3.81c-2.99,1.43-5.93,2.96-8.8,4.62c-5.67,3.4-10.96,7.7-14.92,13.08
			c-4.06,5.23-7.73,10.88-10.28,17.13c-2.57,6.22-3.94,13.08-3.47,19.92c0.37,6.83,2.6,13.57,6.39,19.19
			c3.71,5.68,8.82,10.26,14.5,13.63l0.22-0.32c-5.05-4.18-9.48-9.04-12.61-14.6c-1.55-2.79-2.76-5.74-3.64-8.76
			c-0.86-3.04-1.34-6.17-1.48-9.32c-0.37-12.62,4.21-25.26,11.55-36.01c3.54-5.49,8.76-9.58,14.42-12.78
			c5.66-3.23,11.84-5.46,18.06-7.35c8.05-2.32,16.23-4.12,24.49-5.5c-0.13-1.2-0.26-2.39-0.39-3.59
			C100.14,155.77,91.8,157.94,83.72,160.95z"/>
		<path class="st2" d="M115.4,152.89c0.11,1.26,0.22,2.52,0.33,3.78c1.6-0.22,3.2-0.43,4.81-0.63c-0.18-1.29-0.35-2.58-0.52-3.87
			C118.48,152.4,116.94,152.64,115.4,152.89z"/>
		<path class="st2" d="M248.06,85.55h-0.39c-0.17,6.55-1.53,13.04-4.14,18.97c-2.6,5.95-6.47,11.26-10.99,15.86
			c-9.17,9.2-20.92,15.36-33.01,19.97c-12.17,4.53-24.97,7.44-37.86,8.89c-3.22,0.36-6.45,0.64-9.68,0.76
			c-3.17,0.14-6.52,0.02-9.85,0.14c-5.04,0.17-10.07,0.54-15.07,1.11c0.17,1.35,0.34,2.7,0.51,4.04c4.9-0.46,9.81-0.84,14.71-1.04
			c3.24-0.19,6.47-0.14,9.86-0.3c3.34-0.16,6.66-0.46,9.96-0.88c13.19-1.74,26.15-4.95,38.53-9.82
			c12.32-4.88,24.15-11.71,33.35-21.47c4.55-4.88,8.33-10.54,10.72-16.77C247.16,98.81,248.25,92.14,248.06,85.55z"/>
		<path class="st3" d="M197.12,27.44c-2.7-0.33-5.42-0.54-8.15-0.67c-2.73-0.12-5.47-0.16-8.22-0.07c-2.77,0.12-5.45,0.31-8.31,0.82
			l0.14-0.03c-5.71,0.82-10.99,2.6-16.1,5c-5.08,2.41-9.88,5.47-14.21,9.12c-8.66,7.33-15.3,17-19.48,27.52
			c-2.07,5.29-3.68,10.68-4.69,16.31c-0.99,5.59-1.48,11.2-1.62,16.77c-0.24,11.15,0.53,22.16,1.56,33.1
			c0.54,5.65,1.23,11.26,1.98,16.86c0.17,1.29,0.35,2.58,0.52,3.87c0.54,3.96,1.09,7.91,1.61,11.88l1.07,8.09
			c0.36,2.66,0.73,5.31,0.94,7.98c0.56,5.32,0.76,10.66,0.68,15.97c-0.07,5.31-0.59,10.58-1.55,15.73
			c-1.01,5.13-2.5,10.17-4.93,14.7c-2.4,4.53-5.58,8.63-9.67,11.67c-2.03,1.52-4.27,2.79-6.63,3.74c-2.33,0.93-4.97,1.59-7.29,1.78
			l-0.3,0.02l-0.01,0c-3.11,0.57-6.56,0.69-9.84,0.41c-3.31-0.29-6.6-1-9.67-2.28c-3.09-1.25-5.92-3.14-8.28-5.55
			c-2.39-2.39-4.24-5.34-5.62-8.5c1.04,3.28,2.6,6.46,4.83,9.2c2.23,2.73,5.07,4.99,8.25,6.61c3.17,1.66,6.64,2.67,10.16,3.22
			c3.55,0.54,7.05,0.7,10.77,0.29l-0.31,0.03c11.99-0.27,22.56-8.05,28.17-18.13c2.94-5,4.78-10.48,6.1-15.99
			c1.3-5.53,1.97-11.15,2.17-16.75c0.53-11.16-0.66-22.42-2.11-33.17c-0.49-3.9-0.99-7.8-1.48-11.7c-0.17-1.35-0.34-2.7-0.51-4.04
			c-0.69-5.55-1.34-11.09-1.87-16.63c-1.11-10.77-1.94-21.57-1.79-32.25c0.06-5.34,0.36-10.64,1.16-15.82
			c0.77-5.13,2.19-10.29,3.97-15.2c3.53-9.87,9.23-18.96,16.94-26.11c3.82-3.6,8.12-6.72,12.77-9.25c4.63-2.49,9.67-4.6,14.72-5.69
			l0.14-0.03c2.45-0.62,5.17-1.01,7.81-1.32c2.66-0.31,5.35-0.5,8.04-0.61c2.69-0.1,5.4-0.1,8.1-0.07c2.71,0.04,5.42,0.18,8.13,0.36
			C202.51,28.18,199.82,27.76,197.12,27.44z"/>
		<path class="st4" d="M195.33,22.88c-6.83-1.95-14.06-2.55-21.12-2.55c-14.27-0.42-28.99,4.03-40.68,12.81
			c-5.87,4.35-11.04,9.7-15.13,15.76c-2.08,3.01-3.9,6.19-5.5,9.46c-1.63,3.26-2.99,6.64-4.17,10.08
			c-1.21,3.43-2.14,6.93-2.96,10.45c-0.75,3.59-1.32,7.24-1.56,10.85c-0.57,7.24-0.38,14.4,0.04,21.48
			c1.08,14.43,2.76,28.69,4.33,42.89c0.13,1.2,0.26,2.39,0.39,3.59c1.35,12.36,2.57,24.68,3.2,37.05
			c0.36,6.91,0.54,13.85,0.02,20.61c-0.27,3.39-0.79,6.63-1.78,9.69c-0.99,3.07-2.57,5.94-4.65,8.42
			c-8.25,10.09-25.18,12.5-36.54,3.97c5.02,4.96,12.34,7.52,19.6,7.33c7.25-0.19,14.68-3.11,19.9-8.61c2.61-2.72,4.7-5.97,6.09-9.47
			c1.45-3.51,2.11-7.23,2.53-10.8c0.81-7.18,0.87-14.28,0.76-21.35c-0.28-12.71-1.28-25.3-2.38-37.87
			c-0.11-1.26-0.22-2.52-0.33-3.78c-0.01-0.15-0.03-0.31-0.04-0.46c-1.36-13.96-2.98-27.88-3.95-41.67
			c-0.47-6.89-0.69-13.76-0.22-20.48c0.2-3.38,0.69-6.66,1.34-9.93c0.73-3.3,1.49-6.6,2.55-9.8c4.04-12.82,11.29-24.68,21.79-33.07
			c10.46-8.38,23.68-13.34,37.43-13.75c6.91-0.5,13.79-0.3,20.59,1.01c6.79,1.3,13.45,3.5,19.96,6.11
			C208.66,27.6,202.18,24.74,195.33,22.88z"/>
	</g>
</g>
</svg>
