<?xml version="1.0" encoding="utf-8"?>
<!-- Generator: Adobe Illustrator 23.1.0, SVG Export Plug-In . SVG Version: 6.00 Build 0)  -->
<svg version="1.1" id="Layer_1" xmlns="http://www.w3.org/2000/svg" xmlns:xlink="http://www.w3.org/1999/xlink" x="0px" y="0px"
	 viewBox="0 0 315 110.93" style="enable-background:new 0 0 315 110.93;" xml:space="preserve">
<style type="text/css">
	.st0{fill:#D2EBE1;}
	.st1{fill:#1D2958;}
	.st2{fill:#005D5D;}
	.st3{fill:#81AAA9;}
</style>
<g>
	<g>
		<path class="st0" d="M7.08,98.8c-1.22-0.55-2.1-1.49-2.79-2.51c-0.68-1.04-1.19-2.18-1.66-3.33c-0.92-2.31-1.43-4.81-1.43-7.31
			c-0.01-2.5,0.54-5,1.45-7.27c0.9-2.29,2.13-4.44,3.67-6.34c3.06-3.83,7.19-6.61,11.59-8.61c4.41-2.01,9.12-3.34,13.89-4.13
			c4.79-0.78,9.57-0.93,14.31-1.34c4.74-0.4,9.46-0.87,14.11-1.74c4.65-0.84,9.24-2.05,13.6-3.87c2.17-0.92,4.3-1.96,6.31-3.21
			c2.01-1.25,3.91-2.69,5.68-4.3l0.06,0.06c-3.21,3.56-7.26,6.35-11.59,8.47c-4.35,2.11-9.01,3.53-13.71,4.58
			C51.14,60,41.46,60.39,32.1,61.35c-4.67,0.53-9.35,1.35-13.75,3.08c-4.36,1.72-8.42,4.46-11.18,8.24
			c-1.38,1.88-2.42,3.99-3.15,6.19C3.28,81.07,2.91,83.34,3,85.62c0.07,2.28,0.59,4.52,1.4,6.65c0.4,1.07,0.93,2.09,1.45,3.11
			c0.5,1.04,0.96,2.1,1.29,3.36L7.08,98.8z"/>
		<path class="st1" d="M43.86,59.34c-1.01-3.11-1.7-6.33-2.19-9.59c-0.5-3.26-0.73-6.56-0.72-9.89c0.04-3.33,0.37-6.68,1.11-10
			c0.72-3.32,1.95-6.57,3.7-9.59c0.88-1.5,1.9-2.95,3.06-4.28c1.17-1.31,2.41-2.53,3.8-3.62c2.75-2.2,5.96-3.93,9.44-4.89
			c3.47-0.97,7.16-1.11,10.7-0.57c3.54,0.58,6.95,1.79,10.03,3.65c3.06,1.83,5.86,4.47,7.75,7.56c1.92,3.07,3.17,6.54,3.6,10.13
			c0.42,3.58,0.03,7.28-1.18,10.67c-1.19,3.41-3.25,6.44-5.73,8.91c-2.41,2.4-5.08,4.55-8,6.29c-2.91,1.74-6.01,3.13-9.18,4.15
			c-6.38,2.02-12.95,2.8-19.48,3.01l-0.01-0.08c6.39-1.3,12.76-2.73,18.61-5.29c5.87-2.47,11.04-6.17,15.18-10.81
			c2-2.25,3.52-4.84,4.4-7.61c0.88-2.78,1.09-5.74,0.64-8.61c-0.46-2.86-1.48-5.66-3.07-8.07c-1.56-2.45-3.63-4.4-6.16-5.9
			c-5.01-3.02-11.23-4.16-16.89-2.77c-2.84,0.67-5.53,1.98-7.93,3.75c-1.21,0.87-2.32,1.92-3.39,2.97
			c-1.05,1.06-1.99,2.24-2.83,3.49c-1.69,2.52-2.91,5.37-3.84,8.35c-0.93,2.98-1.49,6.12-1.82,9.29
			c-0.67,6.35-0.42,12.87,0.48,19.32L43.86,59.34z"/>
		<path class="st1" d="M43.87,58.99c1.46,4.26,2.41,8.69,3.05,13.18c0.32,2.25,0.49,4.52,0.57,6.81c0.08,2.29,0.02,4.6-0.24,6.91
			C47,88.2,46.54,90.52,45.8,92.8c-0.76,2.26-1.81,4.51-3.33,6.5c-0.75,1-1.61,1.93-2.57,2.76c-0.92,0.77-1.85,1.53-2.87,2.19
			c-2.01,1.35-4.22,2.45-6.59,3.16c-4.72,1.47-9.99,1.22-14.55-0.62c-2.29-0.9-4.42-2.18-6.3-3.78c-1.94-1.65-3.44-3.78-4.43-6.03
			c-1.01-2.25-1.54-4.66-1.69-7.06c-0.13-2.41,0.15-4.81,0.8-7.08c1.31-4.56,4.14-8.5,7.73-11.23l0.06,0.06
			c-2.86,3.46-4.9,7.47-5.52,11.68c-0.68,4.18,0.01,8.5,1.88,12.07c0.96,1.78,2.18,3.33,3.72,4.5c1.58,1.24,3.38,2.21,5.27,2.91
			c3.79,1.38,7.95,1.57,11.79,0.42c1.92-0.57,3.78-1.43,5.51-2.53c0.87-0.54,1.7-1.18,2.52-1.81c0.75-0.61,1.44-1.3,2.07-2.07
			c2.51-3.08,3.92-7.19,4.7-11.4c0.77-4.24,0.99-8.66,0.89-13.08c-0.09-4.43-0.48-8.88-1.09-13.32L43.87,58.99z"/>
		<path class="st2" d="M72.5,5.67c-5.96-0.44-12.09-0.08-17.46,2.26c-2.68,1.14-5.13,2.74-7.23,4.71c-2.11,1.97-3.91,4.26-5.46,6.74
			c-0.39,0.62-0.76,1.25-1.13,1.88l-0.48,0.92l-0.42,0.95c-0.52,1.3-0.94,2.66-1.25,4.06c-0.63,2.81-0.92,5.73-1.03,8.66
			c-0.1,2.93-0.09,5.89,0.09,8.84c0.09,1.47,0.2,2.96,0.39,4.38l0.59,4.45l2.26,17.9c0.31,3.08,0.38,6.16,0.16,9.26
			c-0.21,3.09-0.74,6.2-1.82,9.17c-1.07,2.96-2.71,5.85-5.19,7.97c-2.45,2.14-5.6,3.34-8.7,3.68c-3.08,0.32-6.33,0.06-9.15-1.34
			c-2.81-1.37-5.03-3.81-6.04-6.67l0.08-0.03c0.63,1.35,1.58,2.54,2.66,3.52c1.08,0.99,2.34,1.77,3.69,2.29
			c2.7,1.05,5.69,1.11,8.53,0.58c2.83-0.5,5.48-1.71,7.45-3.66c1.99-1.93,3.35-4.47,4.19-7.18c3.38-11.16-0.26-23.11-1.42-35.07
			l-0.56-4.48c-0.19-1.56-0.29-3.07-0.37-4.6c-0.15-3.05-0.19-6.11,0.02-9.17c0.2-3.06,0.57-6.13,1.33-9.17
			c0.39-1.52,0.86-3.03,1.53-4.49l0.54-1.09c0.2-0.35,0.41-0.72,0.61-1.05c0.41-0.65,0.83-1.3,1.27-1.93
			c1.76-2.53,3.76-4.96,6.18-6.95c2.4-2,5.15-3.59,8.07-4.62c2.93-1.02,5.99-1.53,9.04-1.6c3.05-0.09,6.07,0.24,9.03,0.79L72.5,5.67
			z"/>
		<path class="st3" d="M76.71,5.73c-5.5-2.29-11.55-2.85-17.38-2.37c-2.93,0.25-5.78,0.81-8.49,1.86c-2.69,1.05-5.21,2.5-7.41,4.34
			c-2.22,1.82-4.14,3.99-5.72,6.39c-0.79,1.19-1.53,2.46-2.17,3.72c-0.63,1.26-1.14,2.59-1.57,3.96c-1.66,5.5-1.99,11.41-1.87,17.25
			c0.08,2.93,0.31,5.84,0.73,8.74l1.15,8.88l1.1,8.88c0.09,0.75,0.19,1.45,0.25,2.26l0.15,2.24c0.09,1.49,0.17,2.99,0.22,4.49
			c0.05,1.5,0.1,3,0.06,4.53c-0.02,0.77-0.04,1.52-0.14,2.34c-0.09,0.78-0.21,1.51-0.34,2.27c-0.55,2.99-1.38,6.08-3.32,8.69
			c-0.49,0.64-1.06,1.23-1.72,1.74c-0.64,0.52-1.43,0.88-2.13,1.15c-1.43,0.59-2.96,0.97-4.5,1.1c-1.55,0.13-3.11-0.07-4.57-0.54
			c-1.45-0.5-2.76-1.3-3.89-2.28l0.05-0.06c1.23,0.84,2.6,1.44,4.01,1.77c1.42,0.32,2.87,0.33,4.28,0.1
			c1.41-0.24,2.78-0.7,4.05-1.35c0.66-0.33,1.22-0.64,1.72-1.09c0.5-0.44,0.94-0.95,1.32-1.52c0.76-1.14,1.29-2.45,1.68-3.82
			c0.39-1.36,0.67-2.78,0.85-4.21c0.09-0.71,0.17-1.45,0.22-2.16c0.05-0.67,0.04-1.4,0.03-2.12c-0.04-1.45-0.11-2.93-0.21-4.4
			c-0.1-1.47-0.21-2.95-0.34-4.42l-0.21-2.21c-0.07-0.68-0.2-1.45-0.29-2.18l-1.18-8.84l-1.14-8.84c-0.42-3-0.63-6.04-0.7-9.06
			c-0.12-6.04,0.37-12.18,2.26-18.09c0.49-1.47,1.08-2.91,1.8-4.3c0.75-1.37,1.55-2.66,2.44-3.92c1.77-2.52,3.91-4.79,6.36-6.68
			c4.89-3.79,11.06-5.8,17.11-5.84c3.02-0.08,6.04,0.13,9,0.68c2.96,0.51,5.84,1.49,8.49,2.86L76.71,5.73z"/>
	</g>
	<g>
		<g>
			<path class="st1" d="M68.37,108.24c-4.45,0-6.91-1.95-7.21-5.3c-0.08-0.21-0.13-3.39-0.13-4.32h4.28c0,0.76,0.04,3.14,0.08,3.26
				c0.25,1.74,1.27,2.37,2.92,2.37c1.95,0,2.84-1.19,2.84-3.73c0-2.71-0.68-4.32-3.39-7.21c-0.59-0.64-1.7-1.82-2.59-2.8
				c-2.71-3.01-4.28-5.34-4.28-9.41c0-4.62,2.76-7.29,7.33-7.29c4.58,0,6.57,2.71,6.99,6.27c0.08,1.36,0.17,2.97,0.17,3.56h-4.32
				c0-0.76-0.08-2.84-0.08-2.84c-0.21-1.82-0.97-2.84-2.8-2.84c-2.12,0-2.8,0.98-2.8,3.26c0,2.59,1.65,4.37,3.48,6.36
				c0.72,0.76,1.7,1.87,2.63,2.88c2.8,3.05,4.2,5.38,4.2,9.83C75.7,105.44,73.03,108.24,68.37,108.24z"/>
			<path class="st1" d="M91.27,103.96c-0.68,2.63-2.59,4.2-5.76,4.2c-3.43,0-5.17-1.65-5.77-4.11c-0.38-1.61-0.72-5-0.72-7.8
				c0-2.8,0.17-5.93,0.76-7.8c0.85-2.59,2.37-4.15,5.77-4.15s5.21,1.7,5.81,4.15c0.38,1.53,0.64,5.21,0.64,7.8
				C91.99,98.83,91.74,102.22,91.27,103.96z M87.67,89.88c-0.25-1.31-0.93-1.82-2.16-1.82c-1.19,0-1.87,0.64-2.12,1.91
				c-0.25,1.23-0.34,4.32-0.34,6.32c0,2.08,0.13,5.17,0.34,6.44c0.25,1.23,1.02,1.78,2.12,1.78c1.14,0,1.87-0.59,2.12-1.82
				c0.21-1.27,0.34-4.32,0.34-6.4C87.97,94.25,87.88,91.03,87.67,89.88z"/>
			<path class="st1" d="M95.98,107.9c-0.13-0.13-0.17-0.72-0.17-1.48c0-4.92,0-24.8,0-30.39c0-0.72-0.04-1.74-0.08-1.99h4.07
				c0.04,0.08,0.08,0.72,0.08,1.4c0,4.62,0,23.7,0,30.69c0,1.1,0.08,1.65,0.17,1.78C100.05,107.9,95.98,107.94,95.98,107.9z"/>
			<path class="st1" d="M103.98,83.19v-4.66h4.41v4.66H103.98z M104.32,107.9c-0.13-0.04-0.21-0.38-0.21-1.27
				c0-3.14,0-22.04,0-22.04h4.15c0,0,0,19.37,0,21.87c0,0.93,0.13,1.4,0.13,1.44H104.32z"/>
			<path class="st1" d="M120.81,86.32V74.03h4.07c0,0-0.04,26.75-0.04,31.07c0,1.19,0.17,2.8,0.17,2.8h-3.39l-0.42-1.87
				c-0.93,1.48-2.25,2.03-3.81,2.03c-1.91,0-3.69-0.85-4.37-2.97c-0.64-1.86-0.97-5.04-0.97-8.65s0.17-6.87,0.81-8.73
				c0.72-2.12,2.46-3.31,4.54-3.31C118.99,84.42,120.22,85.05,120.81,86.32z M116.44,89.8c-0.25,1.44-0.38,4.28-0.38,6.66
				c0,2.33,0.08,4.75,0.38,6.49c0.17,0.93,0.81,1.7,1.99,1.7c1.27,0,1.99-0.76,2.12-2.03c0.13-1.23,0.3-3.77,0.3-6.1
				c0-4.32-0.04-5.34-0.25-6.91c-0.13-0.98-0.93-1.44-2.08-1.44S116.7,88.65,116.44,89.8z"/>
			<path class="st1" d="M135.76,108.24c-4.45,0-6.91-1.95-7.21-5.3c-0.08-0.21-0.13-3.39-0.13-4.32h4.28c0,0.76,0.04,3.14,0.08,3.26
				c0.25,1.74,1.27,2.37,2.92,2.37c1.95,0,2.84-1.19,2.84-3.73c0-2.71-0.68-4.32-3.39-7.21c-0.59-0.64-1.7-1.82-2.59-2.8
				c-2.71-3.01-4.28-5.34-4.28-9.41c0-4.62,2.76-7.29,7.33-7.29c4.58,0,6.57,2.71,6.99,6.27c0.08,1.36,0.17,2.97,0.17,3.56h-4.32
				c0-0.76-0.08-2.84-0.08-2.84c-0.21-1.82-0.97-2.84-2.8-2.84c-2.12,0-2.8,0.98-2.8,3.26c0,2.59,1.65,4.37,3.48,6.36
				c0.72,0.76,1.7,1.87,2.63,2.88c2.8,3.05,4.2,5.38,4.2,9.83C143.09,105.44,140.42,108.24,135.76,108.24z"/>
			<path class="st1" d="M151.78,88.32c0,0.51-0.04,2.03-0.04,14.33c0,1.48,0.59,1.7,1.65,1.7c0.47,0,0.98-0.08,1.4-0.17v3.6
				c-0.42,0.21-1.87,0.3-3.05,0.3c-2.03,0-4.11-1.02-4.11-4.37V88.32h-1.86v-3.73h1.82c0.04-0.08,0.13-3.94,0.13-3.94l3.98-0.13
				v4.07h3.22v3.73H151.78z"/>
			<path class="st1" d="M166.81,107.9c-0.04,0-0.17-0.89-0.17-1.48c-0.93,1.14-2.25,1.65-4.28,1.65c-2.25,0-4.32-0.89-4.45-3.81
				c-0.04-0.89-0.04-3.09,0-4.2c0.13-3.09,1.57-4.92,5.68-5.89c1.02-0.25,1.99-0.42,2.92-0.55c0-0.76,0.04-2.88,0-3.73
				c-0.04-1.27-0.68-1.91-1.95-1.91c-0.98,0-1.78,0.42-1.99,1.61c-0.17,0.93-0.17,2.03-0.17,3.18h-3.81c0-1.31,0.08-3.26,0.34-4.58
				c0.51-2.37,2.46-3.94,5.72-3.94c4.07,0,5.64,1.86,5.77,4.75c0.04,2.2,0,6.36-0.04,8.52c0,2.12-0.04,5.38,0,6.91
				c0.04,1.4,0.13,3.14,0.25,3.48H166.81z M164.94,97.13c-0.72,0.21-1.53,0.38-2.2,1.06c-0.64,0.64-0.72,1.14-0.85,2.08
				c-0.08,0.68-0.04,2.33,0.04,2.92c0.13,0.98,0.98,1.53,2.03,1.53c1.06,0,1.95-0.59,2.33-1.7c0.25-1.14,0.17-2.5,0.21-4.03
				c0.04-0.47,0-1.78,0-2.2C166,96.88,165.45,96.96,164.94,97.13z"/>
			<path class="st1" d="M179.57,88.32c0,0.51-0.04,2.03-0.04,14.33c0,1.48,0.59,1.7,1.65,1.7c0.47,0,0.98-0.08,1.4-0.17v3.6
				c-0.42,0.21-1.87,0.3-3.05,0.3c-2.03,0-4.11-1.02-4.11-4.37V88.32h-1.86v-3.73h1.82c0.04-0.08,0.13-3.94,0.13-3.94l3.98-0.13
				v4.07h3.22v3.73H179.57z"/>
			<path class="st1" d="M197.3,105.19c-0.89,1.91-2.46,3.01-5.34,3.01c-2.5,0-4.71-0.93-5.47-3.31c-0.59-1.86-0.93-3.39-0.93-8.48
				c0-4.58,0.21-7.04,0.81-8.44c0.98-2.33,2.63-3.69,5.72-3.69c3.05,0,4.62,1.44,5.3,3.35c0.72,2.08,0.81,4.62,0.76,10.26h-8.65
				c0,1.36,0.13,3.65,0.42,5.17c0.25,1.19,1.06,1.53,2.03,1.53c0.89,0,1.74-0.38,1.99-1.27c0.3-1.02,0.34-2.25,0.34-2.63h3.77
				C198.07,101.88,198.07,103.58,197.3,105.19z M193.95,89.46c-0.25-0.98-0.97-1.48-2.03-1.48c-0.98,0-1.7,0.34-2.08,1.44
				c-0.34,0.97-0.34,2.84-0.34,5h4.75C194.25,92.17,194.12,90.14,193.95,89.46z"/>
			<path class="st1" d="M214.93,92.3c-1.06,1.44-2.76,2.03-4.87,2.25c-1.36,0.13-3.6,0.04-3.6,0.04v13.31H202V74.07h8.14
				c2.29,0,3.9,0.76,4.79,2.25c1.06,1.82,1.44,3.98,1.44,8.01S215.99,90.9,214.93,92.3z M211.33,79.54
				c-0.38-0.81-1.14-1.31-2.16-1.31h-2.71v12.21c0,0,2.29,0,2.54,0c1.44,0,2.16-0.42,2.46-1.48c0.17-0.64,0.38-1.91,0.38-4.45
				C211.84,81.91,211.58,80.18,211.33,79.54z"/>
			<path class="st1" d="M232.08,107.9h-4.03c-0.04,0-0.04-0.42-0.04-17.8c0-1.14-0.42-1.91-1.78-1.91c-1.27,0-2.2,0.89-2.2,2.84
				v16.87h-4.07V74.03h4.03v12.76c0.42-1.57,1.82-2.5,3.86-2.5c2.42,0,4.2,1.1,4.2,4.79C232.04,106.84,232.04,107.86,232.08,107.9z"
				/>
			<path class="st1" d="M244.5,107.9c-0.04,0-0.17-0.89-0.17-1.48c-0.93,1.14-2.25,1.65-4.28,1.65c-2.25,0-4.32-0.89-4.45-3.81
				c-0.04-0.89-0.04-3.09,0-4.2c0.13-3.09,1.57-4.92,5.68-5.89c1.02-0.25,1.99-0.42,2.92-0.55c0-0.76,0.04-2.88,0-3.73
				c-0.04-1.27-0.68-1.91-1.95-1.91c-0.98,0-1.78,0.42-1.99,1.61c-0.17,0.93-0.17,2.03-0.17,3.18h-3.81c0-1.31,0.08-3.26,0.34-4.58
				c0.51-2.37,2.46-3.94,5.72-3.94c4.07,0,5.64,1.86,5.77,4.75c0.04,2.2,0,6.36-0.04,8.52c0,2.12-0.04,5.38,0,6.91
				c0.04,1.4,0.13,3.14,0.25,3.48H244.5z M242.64,97.13c-0.72,0.21-1.53,0.38-2.2,1.06c-0.64,0.64-0.72,1.14-0.85,2.08
				c-0.08,0.68-0.04,2.33,0.04,2.92c0.13,0.98,0.98,1.53,2.03,1.53c1.06,0,1.95-0.59,2.33-1.7c0.25-1.14,0.17-2.5,0.21-4.03
				c0.04-0.47,0-1.78,0-2.2C243.7,96.88,243.15,96.96,242.64,97.13z"/>
			<path class="st1" d="M261.8,88.74c-0.55-0.17-1.48-0.25-2.5-0.25c-1.86,0-3.01,1.19-3.01,4.49v14.92h-4.11V84.59h4.03v2.59
				c0.3-1.7,1.99-2.88,3.77-2.88c0.81,0,1.44,0.04,1.82,0.17V88.74z"/>
			<path class="st1" d="M280.22,90.05c0-1.02-0.3-1.99-1.65-1.99c-1.23,0-1.95,1.23-1.95,2.37v17.46h-3.94c0-0.08,0-0.72,0-18.02
				c0-1.06-0.51-1.82-1.65-1.82c-1.23,0-1.99,1.27-1.99,2.59v17.25h-4.07V84.59h3.98v2.2c0.42-1.48,1.82-2.5,3.86-2.5
				c1.65,0,2.97,0.98,3.52,2.54c0.55-1.7,1.99-2.54,3.9-2.54c2.37,0,3.9,1.82,3.9,4.37c0,19.12,0,19.24,0.08,19.24h-3.9
				C280.26,107.9,280.22,107.69,280.22,90.05z"/>
			<path class="st1" d="M296.65,107.9c-0.04,0-0.17-0.89-0.17-1.48c-0.93,1.14-2.25,1.65-4.28,1.65c-2.25,0-4.32-0.89-4.45-3.81
				c-0.04-0.89-0.04-3.09,0-4.2c0.13-3.09,1.57-4.92,5.68-5.89c1.02-0.25,1.99-0.42,2.92-0.55c0-0.76,0.04-2.88,0-3.73
				c-0.04-1.27-0.68-1.91-1.95-1.91c-0.98,0-1.78,0.42-1.99,1.61c-0.17,0.93-0.17,2.03-0.17,3.18h-3.81c0-1.31,0.08-3.26,0.34-4.58
				c0.51-2.37,2.46-3.94,5.72-3.94c4.07,0,5.64,1.86,5.77,4.75c0.04,2.2,0,6.36-0.04,8.52c0,2.12-0.04,5.38,0,6.91
				c0.04,1.4,0.13,3.14,0.25,3.48H296.65z M294.79,97.13c-0.72,0.21-1.53,0.38-2.2,1.06c-0.64,0.64-0.72,1.14-0.85,2.08
				c-0.08,0.68-0.04,2.33,0.04,2.92c0.13,0.98,0.98,1.53,2.03,1.53c1.06,0,1.95-0.59,2.33-1.7c0.25-1.14,0.17-2.5,0.21-4.03
				c0.04-0.47,0-1.78,0-2.2C295.85,96.88,295.3,96.96,294.79,97.13z"/>
			<path class="st1" d="M309.05,87.7c-3.29,0-5.24-1.8-5.27-5.36c-0.02-0.69-0.02-2.08,0-3.39c0.05-3.49,2.15-4.99,5.22-4.99
				c3.04,0,5.14,1.43,5.24,4.99v3.39C314.19,85.9,312.31,87.7,309.05,87.7z M313.2,78.88c-0.05-2.62-1.56-3.86-4.2-3.86
				c-2.6,0-4.18,1.24-4.23,3.83v3.09c0.05,3.36,1.63,4.75,4.23,4.75c2.84,0,4.18-1.36,4.2-4.75V78.88z M310.13,84.93L309,81.89
				h-0.94v3.04h-1.68V77.2h2.97c0.96,0,1.46,0.17,1.98,0.74c0.4,0.45,0.49,1.11,0.49,1.51s-0.1,1.19-0.37,1.53s-0.62,0.57-0.96,0.64
				l1.31,3.31H310.13z M309.64,78.8c-0.35-0.17-0.86-0.12-1.58-0.12v1.93c0.69,0,1.31,0.02,1.66-0.15c0.3-0.15,0.37-0.44,0.37-0.91
				C310.09,79.2,309.94,78.93,309.64,78.8z"/>
		</g>
	</g>
</g>
</svg>
